# xmcd CD database file generated by OrangeCD 6.4
#
# Track frame offsets:
#	150
#	14832
#	31420
#	66945
#	89647
#	106385
#	126655
#	141527
#	163550
#	176967
#	193672
#	211697
#	228695
#	249672
#	264305
#	285712
#
# Disc length: 3980 seconds
#
# Revision: 1
# Processed by: cddbd v1.5.2PL0 Copyright (c) Steve Scherf et al.
# Submitted via: OrangeCD 6.4
#
DISCID=000f8a10
DTITLE=Various Artist - Telarc Blues In Store Sampler
DYEAR=2001
DGENRE=Blues
TTITLE0=Graham Parker - Poor Me
TTITLE1=Charlie Musselwhite - Pea Vine Blues
TTITLE2=Ronnie Earl and Irma Thomas - I'll Take Control Of You and Lonely Avenue
TTITLE3=Ronnie Earl, Kim Wilson, James Cotton - No More
TTITLE4=Hoodoo Kings - Stumble And Fall
TTITLE5=Hoodoo Kings - Hard Times
TTITLE6=Mighty Sam Mcclain - Sweet Dreams
TTITLE7=Mighty Sam Mcclain - Standing In The Wings
TTITLE8=Luther ''Guitar'' Johnson - Talkin' About Soul
TTITLE9=Luther ''Guitar'' Johnson - Crazy Over You
TTITLE10=Kenny Neal - No More, One More Chance
TTITLE11=Kenny Neal - Hidden In Plain Sight
TTITLE12=Joe Louis Walker - Peace, Love and Understanding
TTITLE13=Gary Davis - Soulful Wind
TTITLE14=Chris Thomas King - Come On In My Kitchen
TTITLE15=Taj Mahal - Crossroad Blues
EXTD=
EXTT0=
EXTT1=
EXTT2=
EXTT3=
EXTT4=
EXTT5=
EXTT6=
EXTT7=
EXTT8=
EXTT9=
EXTT10=
EXTT11=
EXTT12=
EXTT13=
EXTT14=
EXTT15=
PLAYORDER=
